<?xml version="1.0" encoding="UTF-8"?>
<svg id="Layer_1" data-name="Layer 1" xmlns="http://www.w3.org/2000/svg" xmlns:xlink="http://www.w3.org/1999/xlink" viewBox="0 0 715.47 727.38">
  <defs>
    <style>
      .cls-1 {
        fill: url(#radial-gradient);
      }

      .cls-1, .cls-2, .cls-3, .cls-4, .cls-5, .cls-6, .cls-7, .cls-8, .cls-9, .cls-10, .cls-11 {
        stroke-width: 0px;
      }

      .cls-2 {
        fill: #582400;
      }

      .cls-3 {
        fill: #d09623;
      }

      .cls-4 {
        fill: #1c1b02;
      }

      .cls-5 {
        fill: #eda12f;
      }

      .cls-6 {
        fill: #fdd388;
      }

      .cls-7 {
        fill: #0f1e3c;
      }

      .cls-8 {
        fill: #ba7a1a;
      }

      .cls-9 {
        fill: #f9b726;
      }

      .cls-10 {
        fill: #380801;
      }

      .cls-11 {
        fill: #d8b400;
        opacity: .3;
      }
    </style>
    <radialGradient id="radial-gradient" cx="104.66" cy="492.11" fx="104.66" fy="492.11" r="44.5" gradientTransform="translate(-30.25 138.68) scale(1.3 .74)" gradientUnits="userSpaceOnUse">
      <stop offset=".11" stop-color="#231f20"/>
      <stop offset=".23" stop-color="#382d20"/>
      <stop offset=".48" stop-color="#6e5221"/>
      <stop offset=".84" stop-color="#c58e22"/>
      <stop offset=".89" stop-color="#d09623"/>
    </radialGradient>
  </defs>
  <g>
    <path class="cls-9" d="M359.31,3.18c-35.52.4-69.04-.35-95.04,9.83-43.61,17.09-70.46,49.76-81.93,59.65-19.01,16.39-72.79,20.01-85.87,38.67-13.08,18.66-11.8,56.37,1.97,74.07,12.06,15.5-24.63-14.95-54.4,41.29-11.8,22.29-5.24,47.19,7.21,68.82,9.35,16.25-25.56-11.14-50.47,68.82-6.16,19.79,26.22,69.48,46.54,75.38,21.49,6.24-22.94,17.7,3.28,80.62,6.64,15.94,27.53,19.66,54.4,30.81,25.52,10.58-33.76-4.45-1.97,72.76,9.18,22.29,58.34,33.43,69.48,31.46,41.75-7.37-11.8,14.42,107.5,65.55,34.97,14.99,70.7-.87,76.69-.66,8.78.31,53.48,12.36,100.29.66,41.95-10.49,44.14-52.89,80.62-59.65,17.7-3.28,77.13-8.77,93.73-33.43,9.47-14.07,11.8-62.93-8.52-76.69-19.87-13.46,45.23,4.59,57.03-39.98,4.99-18.85,6.55-48.5-4.59-70.14-13.7-26.6,32.12-3.28,39.98-71.45,3.37-29.2-29.74-64.53-39.98-74.07-19.01-17.7,13.76-9.83-.66-71.45-3.3-14.12-36.71-39.33-53.09-42.61-23.89-4.78,22.94-.66-3.28-62.27-9.34-21.95-49.82-34.08-67.51-38.67-43.62-11.31-5.9-26.87-92.42-67.51-45.85-21.53-96.34-9.86-98.98-9.83Z"/>
    <path class="cls-3" d="M404.93,725.74l-13.5-4.82c-50.29-9.52-65.8-24.69-69.48-38.02-3.03-10.99,2.86-17.49-2.62-26.22-8.19-13.04-27-7.55-64.24-17.04-22.86-5.83-39.98-10.44-44.57-23.6-3.26-9.35-.09-22.7,6.55-31.46,5.49-7.24,9.66-6.46,10.49-10.49,2.6-12.62-38.61-18.96-51.13-49.82-8.1-19.96-.65-41.46,0-43.26,3.76-10.42,10.6-11.66,10.49-18.35-.23-13.05-22.53-14.39-36.71-32.77-13.95-18.09-15.54-46.86-6.55-66.86,10.86-24.19,32.02-24.06,32.77-41.95.65-15.31-14.65-20.01-17.04-44.57-.64-6.62-1.5-15.4,2.62-24.91,6.6-15.22,19.02-16.28,38.02-39.33,5.27-6.39,7.9-9.59,9.18-13.11,5.99-16.56-7.06-28.15-3.93-45.88.55-3.1,2.12-9.38,14.42-23.6,24.62-28.45,49.3-26.16,57.68-45.88,2.88-6.77,4.39-17.44-2.62-34.08l19.18-43.88-29.67,7.17c-43.61,17.09-70.46,49.76-81.93,59.65-19.01,16.39-72.79,20.01-85.87,38.67-13.08,18.66-11.8,56.37,1.97,74.07,12.06,15.5-24.63-14.95-54.4,41.29-11.8,22.29-5.24,47.19,7.21,68.82,9.35,16.25-25.56-11.14-50.47,68.82-6.16,19.79,26.22,69.48,46.54,75.38,21.49,6.24-22.94,17.7,3.28,80.62,6.64,15.94,27.53,19.66,54.4,30.81,25.52,10.58-33.76-4.45-1.97,72.76,9.18,22.29,58.34,33.43,69.48,31.46,41.75-7.37-11.8,14.42,107.5,65.55,34.97,14.99,70.7-.87,76.69-.66,18.08.64,21.97,4.15,39.35,5.11l8.89.36Z"/>
    <path class="cls-8" d="M48.79,290.12l-4.98-10.48c75,22.41,183.17,45.99,314.63,45.88,130.61-.1,238.14-23.55,312.88-45.88v13.41c-69.89,21.95-168.02,44.58-286.66,46.9-142.8,2.79-259.07-24.93-335.87-49.82Z"/>
    <path class="cls-8" d="M95.02,179.26l6.55,9.18c76.71,11.68,168.24,20.01,271.36,18.35,93.27-1.5,176.53-10.85,247.46-22.94.98-5.46,1.95-10.92,2.93-16.39-72.39,13.04-157.02,23.44-251.7,26.22-104.68,3.08-197.94-3.86-276.61-14.42Z"/>
    <path class="cls-8" d="M172.63,83.41l-62.93,15.73c101.36-10.32,209.53-16.63,323.8-17.04,35.88-.13,82.68-2.55,117.2-1.57-4.18-5.68-19.95-8.48-24.12-14.16-48.07-1.76-99.31-1.98-153.38,0-72.15,2.65-139.24,8.85-200.57,17.04Z"/>
    <path class="cls-8" d="M53.86,443.66l-5.24,11.8c92.91,15.89,207.27,24.57,338.97,20.48,109.8-3.41,206.75-17.08,287.76-33.64,6.93-7.78,17.87-24.95,24.8-32.73-88.14,18.62-198.9,43.81-320.54,48.06-125.14,4.37-234.74-.89-325.75-13.98Z"/>
    <path class="cls-8" d="M74.35,539.25c2.06,2.67,8.39,7.13,17.04,10.49,10.17,3.95,17.04,2.62,20.98,2.62-.87,2.62-1.75,5.24-2.62,7.87,74.29,14.62,166.59,26.5,272.68,26.22,96.88-.25,181.89-10.59,251.7-23.6-2.18-3.93-4.37-7.87-6.55-11.8l28.6-11.8c-76.09,15.27-169.48,27.79-276.37,28.84-119.61,1.18-223.18-12.33-305.45-28.84Z"/>
    <path class="cls-8" d="M102.37,624.57c2.86,2.25,10.04,12.96,13.3,15.08,24.41,15.8,50.16,20.2,69.48,20.98,2.62,2.18,12.91,7.65,15.54,9.83,44.17,8.25,88.05,11.65,145.71,13.77,65,2.38,112.24,1.7,161.05-4.59,1.31,0,20.1-12.24,24.91-17.04,5.05.66,16.48-1.25,28.84-2.62,11.8-1.31,27.53-3.93,34.08-10.49-64.44,11.25-153.06,19.21-246.26,16.39-95.67-2.9-181.96-25.58-246.65-41.29Z"/>
    <path class="cls-2" d="M376.69,303.81c-47.94,3.77-79.97,46.68-90.45,82.59-15.47,53.02,8.68,116.02,55.06,138.96,30.85,15.26,61.24,7.7,65.55,6.55,45.41-12.02,64.11-54.94,68.17-64.24,16.24-37.25,16.81-91.04-17.04-128.47-5.54-6.12-36.51-38.91-81.28-35.4Z"/>
    <path class="cls-10" d="M360.87,309.1c-33.16-2.69-65.28,47.8-74.97,76.88-2.61,7.82-15.3,57.77,13.11,102.25,3.21,5.03,32.48,43.65,64.48,39.79,37.34-4.5,61.38-71.06,56.37-123.23-3.55-36.98-24.22-92.88-58.99-95.7Z"/>
    <rect class="cls-6" x="397.48" y="17.79" width="39.86" height="17.3" rx="8.65" ry="8.65" transform="translate(13.38 -81.69) rotate(11.36)"/>
    <rect class="cls-6" x="453.47" y="33.7" width="39.86" height="17.3" rx="8.65" ry="8.65" transform="translate(68.09 -205.89) rotate(26.37)"/>
    <rect class="cls-6" x="408.9" y="97.71" width="46.82" height="18.83" rx="9.02" ry="9.02"/>
    <path class="cls-6" d="M584.92,129.73c-12.63-3.26-26.91-6.25-42.68-8.42-16.68-2.3-32.03-3.27-45.68-3.47-5.12-.69-8.77-5.47-8.08-10.59.69-5.15,5.44-8.77,10.59-8.08,13.87.39,29.23,1.5,45.79,3.78,15.54,2.14,29.78,4.99,42.57,8.11.62.08,3.92.59,6.23,3.62,1.46,1.92,2.19,4.39,1.85,6.97h0c-.69,5.15-5.44,8.77-10.59,8.08Z"/>
    <rect class="cls-6" x="474.9" y="219.96" width="51.62" height="18.83" rx="9.42" ry="9.42" transform="translate(-12.66 29.93) rotate(-3.38)"/>
    <path class="cls-6" d="M611.57,223.41c-7.71,2.47-16.42,4.82-26.07,6.71-11.18,2.2-21.48,3.36-30.59,3.92-.62.12-3.91.67-7.05-1.48-1.99-1.36-3.46-3.48-3.94-6.04h0c-.96-5.11,2.41-10.03,7.52-10.99,8.93-.5,19.08-1.61,30.13-3.76,9.87-1.92,18.75-4.34,26.53-6.87.62-.12,3.91-.67,7.05,1.48,1.99,1.36,3.46,3.48,3.94,6.04h0c.96,5.11-2.41,10.03-7.52,10.99Z"/>
    <rect class="cls-6" x="552.72" y="351.12" width="44.59" height="18.83" rx="8.75" ry="8.75" transform="translate(-20.26 34.54) rotate(-3.38)"/>
    <path class="cls-6" d="M675.28,341.08c-6.61,4.07-14.7,8.4-24.22,12.27-10.61,4.31-20.37,6.99-28.59,8.69-4.8,1.91-10.32-.48-12.23-5.28-1.92-4.83.45-10.31,5.28-12.23,7.86-1.85,16.78-4.47,26.36-8.23,10.25-4.02,19.09-8.48,26.45-12.73,4.8-1.91,10.32.48,12.23,5.28,1.92,4.83-.45,10.31-5.28,12.23Z"/>
    <rect class="cls-6" x="543.13" y="472.48" width="46.82" height="18.83" rx="9.02" ry="9.02"/>
    <path class="cls-6" d="M653.01,481.01c-4.5,2.13-10.46,4.46-17.69,6.06-7.17,1.58-13.51,1.98-18.46,1.94-5.04,1.12-10.11-2.12-11.23-7.16-1.12-5.08,2.08-10.11,7.16-11.23,5.72-.71,11.95-1.73,18.59-3.21,6.39-1.42,12.25-3.07,17.56-4.78.61-.14,3.88-.79,7.1,1.26,2.03,1.3,3.57,3.37,4.13,5.91h0c1.12,5.08-2.08,10.11-7.16,11.23Z"/>
    <rect class="cls-6" x="464.19" y="590.56" width="45.26" height="18.83" rx="8.82" ry="8.82" transform="translate(-34.54 29.75) rotate(-3.38)"/>
    <path class="cls-6" d="M609.14,592.26c-9.69,2.84-20.62,5.6-32.69,7.95-14,2.72-26.85,4.37-38.18,5.34-.77.14-4.88.85-8.7-1.18-2.41-1.28-4.14-3.35-4.62-5.91h0c-.96-5.11,3.45-10.23,9.84-11.43,11.12-.91,23.78-2.49,37.6-5.16,12.36-2.39,23.49-5.23,33.27-8.13.77-.14,4.88-.85,8.7,1.18,2.41,1.28,4.14,3.35,4.62,5.91h0c.96,5.11-3.45,10.23-9.84,11.43Z"/>
    <path class="cls-6" d="M450.86,707.6c-7.29.43-14.58.86-21.87,1.29l-20.85,1.23c-.63.04-3.96.17-6.81-2.36-1.8-1.6-2.99-3.89-3.15-6.48h0c-.31-5.19,3.65-9.65,8.85-9.96l42.72-2.52c5.19-.31,9.65,3.65,9.96,8.85.31,5.19-3.65,9.65-8.85,9.96Z"/>
  </g>
  <ellipse class="cls-1" cx="106.16" cy="503.61" rx="58" ry="33"/>
  <g>
    <g>
      <path class="cls-5" d="M58.69,502.08c-.81-6.6,2.3-11.67,3.33-13.35,3.34-5.44,8.87-9.2,20.41-12.99,11.95-3.92,36.41-11.95,56.16-1.25,1.84.99,3.36,2,4.62,3.02,2.52,2.04,4.01,4.14,4.95,6.33,2.45,5.72,1.47,12.91-2.21,17.65-2.21,2.85-5.01,4.3-9.29,6.51-4.02,2.08-7.35,3.1-8.62,3.48-11.76,3.51-33.13,9.89-53.81,5.57-3.97-.83-8.74-2.23-12.07-6.36-2.8-3.47-3.32-7.33-3.48-8.62Z"/>
      <path class="cls-7" d="M166.28,463.48c-3.57,1.37-8.77,3.53-13.57,7.03-5.95,4.33-9.95,9.05-12.47,12.55.6.42,1.2.84,1.8,1.26,1.97-3.1,5.49-7.8,11.24-11.96,4.93-3.58,10.28-5.42,13.56-6.42-.19-.82-.37-1.63-.56-2.45Z"/>
      <path class="cls-7" d="M166.3,491.55c.11-.4-.08-.82.03-1.22s.53-.8.64-1.21c-.64-.28-2.3-.72-3.63-1.14-6.55-2.07-12.3-1.48-15.01-1.18-.92.1-2.27.29-3.91.62.59.83,1.19,1.65,1.78,2.48,2.44-.39,5.56-.66,9.16-.42,4.22.28,8.35,1.19,10.94,2.06Z"/>
      <path class="cls-7" d="M166.3,491.55c.43,1.74,2.63,2.57,4.23,1.92,1.12-.46,2.05-1.69,1.89-3.01-.19-1.62-1.93-2.82-3.61-2.52-1.68.3-2.9,2.03-2.52,3.61Z"/>
      <path class="cls-7" d="M166.3,462.87c.67-1.31,3.16-1.96,4.3-1.13.9.67,1.04,2.09.55,3.06-.67,1.31-3.16,1.96-4.3,1.13-.9-.67-1.04-2.09-.55-3.06Z"/>
      <path class="cls-4" d="M79.36,476.89c.01-.61-4.52,1.46-7.38,2.89-2.66,1.34-4.59,2.93-5.85,4.15.02,4.77.43,10.6,1.74,17.12,1.21,6.01,2.89,11.17,4.55,15.35-.01.61,4.51,1.8,6.67,1.97,3.31.27,5.77.29,8.54.18-1.86-4.6-3.65-11.16-5.13-17.19-2.2-9.02-2.93-17.77-3.14-24.47Z"/>
      <path class="cls-4" d="M92.27,472.28c-.31,6.08-.19,15.04,1.32,23.82,1.39,8.08,4.75,16.14,6.86,21.5,1.83.29,3.15-.14,6.11-.48,2.79-.32,5.69-1.02,7.36-1.67-2.12-5.54-4.88-13.19-6.25-21.49-1.45-8.78-1.61-18.28-1.31-24.43-2,.02-4.24.71-6.73,1.08-2.8.42-5.27,1.03-7.36,1.67Z"/>
      <path class="cls-4" d="M121.01,469.23c-.67,4.99-1.09,13.19.16,21.36,1.32,8.69,4.62,16.21,6.88,20.89,1.72-.44,3.85-1.14,6.15-2.31,2.67-1.35,4.08-1.64,5.55-2.93-1.7-4.3-3.43-11.75-4.49-18.4-.98-6.14-1.09-10.89-.9-15.27-1.8-1.26-3.76-2.06-6.05-2.57-3.04-.67-5.29-.93-7.31-.77Z"/>
    </g>
    <path class="cls-11" d="M52.68,416.71c-13.24,4.79-22.88,24.47-18.56,40.71,4.23,15.91,20.23,22.42,30.66,26.67,8.03,3.27,19.49,7.94,30.64,2.73,6.37-2.97,12.58-9.14,14.4-16.35,5.87-23.32-33.12-62.47-57.14-53.77Z"/>
    <path class="cls-11" d="M144.33,392.2c-22.8-6.71-48.96,15.79-58.06,38.98-7.59,19.35-6.7,47.84,7.08,54.8,15.26,7.71,38.91-14.69,50.03-25.23,13.16-12.47,27.45-26,24.63-42.79-2.06-12.22-12.57-22.5-23.69-25.77Z"/>
  </g>
</svg>